<svg width="32" height="32" viewBox="0 0 32 32" fill="none" xmlns="http://www.w3.org/2000/svg">
<path d="M0 0H32V32H0V0Z" fill="black"/>
<path d="M8.71233 19.4932C8.71233 21.3467 7.20972 22.8493 5.35616 22.8493C3.50261 22.8493 2 21.3467 2 19.4932C2 17.6396 3.50261 16.137 5.35616 16.137C7.20972 16.137 8.71233 17.6396 8.71233 19.4932Z" fill="#0062C5"/>
<path fill-rule="evenodd" clip-rule="evenodd" d="M11.9726 16.7123V16.711C10.1634 16.6602 8.71233 15.1777 8.71233 13.3562C8.71233 11.5026 10.2149 10 12.0685 10C12.1217 10 12.1746 10.0012 12.2272 10.0037L12.6438 10.0037V10L12.7638 10.0037L15.265 10.0037C15.9752 10.0037 16.6733 10.1865 17.2923 10.5345C17.9135 10.8836 18.434 11.3873 18.8034 11.9968L19.4693 13.0957L19.9898 13.9728C20.3526 14.5845 20.8576 15.0997 21.4618 15.4748C22.1628 15.91 22.9715 16.1407 23.7966 16.1407L26.4852 16.1407C26.5378 16.1382 26.5907 16.137 26.6438 16.137C28.4974 16.137 30 17.6396 30 19.4932C30 21.3467 28.4974 22.8493 26.6438 22.8493C25.2971 22.8493 24.1357 22.0561 23.6012 20.9114L22.1802 18.2998C21.9998 17.9682 21.7591 17.6733 21.4704 17.4301C21.1668 17.1745 20.8106 16.9792 20.4322 16.8588C20.1307 16.7628 19.8119 16.7126 19.4956 16.7123H11.9726ZM23.359 20.2656L23.3918 20.3259C23.3899 20.3185 23.388 20.311 23.3862 20.3036L23.3836 20.3082L23.359 20.2656ZM18.7618 12.1132L18.7213 12.0465C18.6878 11.9912 18.6531 11.9368 18.617 11.8833L18.7618 12.1132ZM16.4538 10.2784C16.3476 10.2457 16.2401 10.2174 16.1315 10.1936L16.4538 10.2784Z" fill="#0062C5"/>
</svg>
