<svg width="32" height="32" viewBox="0 0 32 32" fill="none" xmlns="http://www.w3.org/2000/svg">
<path d="M0 0H32V32H0V0Z" fill="black"/>
<path d="M7.575 13.45L7.02 16.225H11.895L11.49 18.175H6.645L5.88 22H3.435L5.535 11.5H13.47L13.065 13.45H7.575Z" fill="white"/>
<path d="M18.0691 9.37H20.2591L12.5491 23.5H10.3741L18.0691 9.37Z" fill="white"/>
<path d="M23.5302 22.18C22.4802 22.18 21.5602 21.99 20.7702 21.61C19.9902 21.23 19.3902 20.695 18.9702 20.005C18.5502 19.315 18.3402 18.52 18.3402 17.62C18.3402 16.43 18.6102 15.36 19.1502 14.41C19.7002 13.45 20.4702 12.695 21.4602 12.145C22.4502 11.595 23.5852 11.32 24.8652 11.32C25.8052 11.32 26.6352 11.48 27.3552 11.8C28.0752 12.12 28.6202 12.58 28.9902 13.18L27.2352 14.62C26.6752 13.8 25.8302 13.39 24.7002 13.39C23.9302 13.39 23.2502 13.57 22.6602 13.93C22.0702 14.29 21.6102 14.78 21.2802 15.4C20.9602 16.02 20.8002 16.71 20.8002 17.47C20.8002 18.28 21.0552 18.925 21.5652 19.405C22.0852 19.875 22.8102 20.11 23.7402 20.11C24.8502 20.11 25.7802 19.705 26.5302 18.895L27.9702 20.365C26.9302 21.575 25.4502 22.18 23.5302 22.18Z" fill="white"/>
</svg>
